<?xml version="1.0" standalone="no"?>
<!DOCTYPE svg PUBLIC "-//W3C//DTD SVG 20010904//EN"
 "http://www.w3.org/TR/2001/REC-SVG-20010904/DTD/svg10.dtd">
<svg version="1.0" xmlns="http://www.w3.org/2000/svg"
 width="700.000000pt" height="700.000000pt" viewBox="0 0 700.000000 700.000000"
 preserveAspectRatio="xMidYMid meet">
<metadata>
Created by potrace 1.14, written by Peter Selinger 2001-2017
</metadata>
<g transform="translate(0.000000,700.000000) scale(0.100000,-0.100000)"
fill="#000000" stroke="none">
<path d="M3329 6995 c-2 -2 -40 -6 -84 -9 -44 -4 -89 -8 -100 -10 -11 -2 -47
-7 -80 -10 -33 -4 -116 -19 -185 -32 -393 -79 -777 -227 -1114 -429 l-99 -59
109 -27 c176 -44 389 -126 583 -224 76 -38 118 -61 246 -135 182 -105 397
-256 580 -409 101 -84 357 -337 425 -420 25 -30 57 -68 71 -85 30 -36 112
-153 152 -214 31 -48 20 -46 142 -24 22 3 114 6 205 6 148 0 176 -3 275 -28
169 -43 372 -140 452 -215 12 -12 26 -21 31 -21 11 0 51 151 77 285 38 206 48
318 32 385 -3 14 -13 61 -22 105 -73 353 -246 756 -481 1117 -74 115 -243 345
-271 370 -17 15 -175 49 -303 63 -30 4 -68 9 -85 11 -40 5 -552 14 -556 9z"/>
<path d="M4914 6796 c70 -108 150 -328 181 -501 9 -51 15 -84 20 -115 3 -14 7
-50 11 -80 3 -30 7 -66 10 -80 21 -127 21 -698 -1 -805 -2 -11 -7 -45 -10 -75
-3 -30 -7 -68 -10 -85 -3 -16 -7 -46 -10 -65 -56 -389 -190 -797 -347 -1058
-100 -166 -175 -255 -348 -414 -242 -221 -503 -371 -825 -472 l-105 -32 92
-51 c177 -96 387 -178 538 -209 14 -3 41 -9 60 -14 143 -35 416 -52 575 -35
115 12 187 23 244 36 25 6 57 13 71 15 126 23 523 190 634 266 6 4 55 37 108
73 54 35 106 71 115 79 375 301 615 592 818 991 84 166 105 214 153 355 l36
106 -18 54 c-120 368 -384 843 -626 1124 -289 338 -527 543 -905 781 -96 61
-444 235 -469 235 -5 0 -1 -11 8 -24z"/>
<path d="M1627 5994 c-1 -1 -76 -4 -167 -8 -91 -3 -181 -8 -200 -10 -19 -2
-64 -7 -100 -11 -156 -15 -241 -33 -260 -57 -10 -13 -28 -35 -41 -49 -209
-229 -462 -637 -581 -939 -17 -41 -36 -88 -44 -105 -27 -61 -95 -281 -129
-418 -75 -305 -100 -517 -100 -847 0 -227 10 -403 24 -428 7 -12 12 -10 24 14
9 16 26 40 39 54 13 14 35 41 50 60 130 170 395 411 615 558 253 169 544 310
836 403 59 19 107 37 107 40 0 3 -55 18 -122 34 -425 97 -688 289 -809 591
-30 76 -66 221 -56 230 2 3 20 -4 38 -15 150 -87 426 -144 704 -144 211 0 441
24 645 68 41 9 84 18 95 21 19 3 31 6 95 20 14 3 36 7 49 10 14 3 27 7 31 9 4
2 29 7 56 11 27 3 52 8 55 10 3 1 28 6 55 9 27 4 78 11 114 17 98 15 394 17
492 3 185 -28 357 -95 448 -174 48 -42 49 -49 4 -57 -132 -21 -262 -127 -358
-292 -4 -7 20 -2 61 14 129 50 348 122 427 140 43 11 80 24 83 31 5 13 -91
169 -172 279 -117 158 -345 399 -530 559 -82 71 -129 99 -260 155 -211 89
-473 152 -815 195 -58 7 -398 23 -403 19z m56 -188 c189 -83 333 -137 502
-190 61 -19 132 -40 158 -48 l49 -13 -130 -29 -129 -28 -69 30 c-158 70 -361
198 -469 297 l-50 46 50 -24 c28 -13 67 -32 88 -41z m-610 -185 c54 -19 232
-69 270 -77 10 -2 27 -6 37 -9 10 -3 27 -8 37 -10 10 -2 63 -14 118 -26 55
-12 109 -23 120 -24 11 -2 47 -8 80 -14 33 -6 74 -12 92 -13 17 -1 30 -5 28
-8 -5 -8 -114 -14 -295 -14 l-165 -1 -125 62 c-108 54 -276 153 -259 153 3 0
31 -9 62 -19z m1690 -195 c125 -10 318 -67 381 -112 20 -15 20 -15 -9 -9 -16
4 -37 9 -45 12 -56 18 -349 25 -470 10 -97 -12 -255 -44 -345 -72 -162 -49
-365 -90 -499 -103 -152 -14 -416 -7 -516 13 -14 2 -50 10 -80 15 -102 20
-239 63 -360 112 -97 40 -103 47 -33 36 32 -5 74 -10 93 -12 57 -6 153 -17
176 -21 47 -7 296 -19 409 -19 187 0 301 10 480 40 17 3 68 16 115 28 202 55
286 71 430 82 47 4 86 8 87 9 4 2 101 -3 186 -9z"/>
<path d="M4778 4424 c-2 -1 -39 -5 -83 -8 -44 -3 -105 -11 -135 -16 -30 -5
-69 -12 -86 -15 -18 -3 -92 -20 -165 -39 -321 -81 -622 -226 -899 -432 -55
-40 -108 -82 -118 -91 -11 -10 -37 -33 -58 -52 -44 -38 -177 -166 -212 -204
l-24 -25 34 -38 c141 -157 389 -364 436 -364 10 0 56 13 103 29 307 104 556
251 788 466 221 204 366 419 464 690 14 39 28 78 32 87 6 16 1 18 -34 16 -22
-1 -42 -2 -43 -4z"/>
<path d="M1975 3678 c-365 -309 -668 -661 -905 -1052 -70 -115 -215 -393 -254
-486 -10 -25 -24 -58 -31 -75 -39 -90 -89 -229 -130 -359 l-45 -147 32 -47
c64 -94 175 -234 263 -332 62 -70 297 -300 328 -322 l27 -20 -7 109 c-14 207
-9 556 12 738 3 22 7 64 11 94 6 54 9 79 20 141 3 19 7 46 9 60 6 47 47 235
71 330 91 352 245 730 428 1045 76 132 196 317 229 353 36 39 4 23 -58 -30z"/>
<path d="M6952 3677 c-210 -263 -617 -568 -990 -743 -64 -31 -125 -60 -134
-64 -37 -20 -200 -81 -318 -120 -314 -102 -611 -153 -885 -153 -99 0 -262 10
-274 17 -3 2 -31 7 -62 10 -204 24 -552 147 -774 273 -71 40 -202 123 -230
145 -5 5 -46 36 -90 70 -44 35 -84 68 -88 75 -27 43 -31 -15 -12 -182 1 -16
10 -64 19 -106 80 -378 329 -775 668 -1064 103 -89 248 -196 326 -242 414
-245 770 -361 1252 -408 59 -6 347 -6 385 -1 17 3 59 7 95 10 69 6 88 9 190
28 36 7 68 11 72 10 6 -1 73 72 153 169 69 83 226 317 299 446 153 273 301
654 351 906 2 9 6 21 9 25 2 4 7 26 10 48 4 22 9 51 12 64 13 62 24 129 29
170 8 70 16 133 21 160 8 41 13 500 6 499 -4 0 -22 -19 -40 -42z"/>
<path d="M2900 3433 c-145 -187 -250 -352 -328 -513 -235 -492 -310 -1058
-217 -1635 26 -156 84 -368 149 -540 96 -252 358 -674 429 -690 40 -9 81 -15
137 -21 30 -3 61 -7 68 -9 78 -26 678 -26 822 -1 14 2 50 7 80 11 55 7 63 8
130 20 503 89 1003 300 1437 607 56 40 101 73 100 74 -1 1 -54 4 -117 8 -114
5 -128 7 -205 21 -121 22 -320 83 -465 142 -83 34 -324 152 -387 189 -109 65
-135 82 -200 125 -40 27 -77 49 -82 49 -5 0 -11 3 -13 8 -1 4 -48 40 -103 81
-167 124 -242 189 -410 356 -372 370 -592 727 -694 1130 -11 44 -24 107 -28
140 -10 73 -10 311 -1 381 6 46 4 53 -25 88 l-32 37 -45 -58z"/>
</g>
</svg>
