<!-- <svg id="Layer_2" data-name="Layer 2" xmlns="http://www.w3.org/2000/svg" viewBox="0 0 307.88 305.61">
  <g id="Layer_1-2" data-name="Layer 1">
    <g>
      <path class="cls-1" d="m273.43,70.15l-36.3-36.05c-13.91-13.82-30.45-23.42-48.01-28.87,11.03,18.54,24.12,36.28,40.2,57.91,5.37,7.23,11.99,19.19,14.32,26.8,8.3,27.06,3.56,35.29-7.64,47.75-8.27,9.2-23.12,18.07-26.15,23.73-2.74,5.12-4.63,14.53-1.29,31.09,6.36,31.55-1.47,68.87-29.53,87.23-29.17,19.08-103.84,15.81-124.29-46.66,0,0,50.61,72.29,115.53,24.08,31.02-23.04,30.81-56.46,28.87-76.27-1.94-19.81-7.54-41.9,9.09-51.01,0,0,2.14-1.45,5.18-3.56,10.32-6.59,13.53-9.76,13.53-9.76,6.78-5.68,5.33-17.38,3.58-24.61-1.69-6.39-3.41-11.75-7.11-17.45-11.71-18.08-22.31-29.06-33.69-44.15-6.72-8.92-13.01-19.24-18.32-29.17-4.12-.61-8.26-1-12.41-1.18,1.61,5.15,3.58,10.21,5.8,15.22,8.26,18.65,19.44,35.83,30.63,53,9.6,14.73,19.2,29.46,28.8,44.19-4.99,4.28-10.81,7.8-13.65,9.42-9.73-15.22-19.94-30.19-29.65-45.43-6.61-10.37-12.8-20.97-19.13-31.49-.03-.05-.05-.09-.08-.14-2.83-4.72-4.57-8.42-5.44-10.42-.08-.26-.18-.53-.3-.8-4.85-10.78-7.88-21.96-9.35-33.42-4.3.26-8.58.77-12.83,1.5-.06,12.57,2.36,21.18,5.85,27.62,8.97,16.54,22.64,38.65,29.4,51.5,5.28,10.04,10.15,23.2,2.1,46.49-2.48,7.18-5.62,14.2-9.32,20.88-9.09,16.41-19.17,32.29-28.17,48.79-10.57,19.4-10.45,35.94-4.89,40.61,5.98,5.03,13.21,5.88,19.2,2.4,8.57-4.99,15.72-13.74,16.77-31.41.5-8.36-6.24-16.34-6.24-16.34,12.72-14.92,20.28-32.74,20.28-32.74,0,0-.71,11.79,1.51,32.64,1.27,11.95-.1,30.06-10.94,46.41-12.39,18.69-25.05,19.9-35.98,15.48-7.56-3.06-14.46-10.08-17.01-19.51-3.38-12.51-3.71-23.01-.64-37.01,3.49-15.92,11.07-28.61,18.06-40.56,6.55-11.19,12.95-22.47,18.98-33.91,9.57-20.8,12.55-31.36,4.76-47.42-6.59-13.59-25.22-39.01-27.59-59.45-.6-5.22-.5-9.79-.04-13.73-21.67,4.47-42.32,15.03-59.13,31.74l-36.3,36.05c-45.94,45.63-45.94,119.6,0,165.22l36.3,36.05c6.69,6.64,13.99,12.29,21.72,16.99,6.26,2.76,11.99,4.8,16.72,6.26,4.33,2.49,8.91,4.66,13.83,6.39,2.31.81,4.64,1.51,6.97,2.12,11,2.26,22.25,2.94,33.41,2.05,1.08-.13,2.16-.28,3.25-.45,25.05-3.91,43.6-16.68,58.35-34.82,12.23-15.04,18.45-32.05,20.13-50.55,1.48-16.28-1.62-31.87-8.09-47.05-2.91-6.82-6.16-13.49-9.64-20.04,6.01-3.43,10.54-8.42,12.84-11.92,6.66,12.16,12.09,23.4,15.93,36.58,1.65,5.68,3.12,11.46,3.83,17.31,2.3,18.93-1.33,39.45-6.84,50.9-4.22,8.77-9.09,17.21-14.82,25.01l35.08-34.83c45.94-45.63,45.94-119.6,0-165.22ZM113.65,255.78c-4.92.92-9.37,1.76-14.21,2.67-1.59-4.52-3.07-8.74-4.7-13.4-2.3.3-4.45.62-6.61.84-2.17.22-4.36.33-6.78.5-.97-4.99-1.85-9.52-2.86-14.71,4.71-.85,9.3-1.69,14.23-2.58,1.06,3.87,1.93,7.34,2.98,10.76,1.08,3.53,1.56,3.73,5.49,3.15,2.83-.42,5.67-.83,9-1.32,1.13,4.62,2.22,9.03,3.46,14.09Zm-21.17-96.23c-2.45.31-4.74.66-7.04.89-2.31.23-4.64.35-7.21.53-1.03-5.3-1.97-10.13-3.04-15.65,5.01-.91,9.89-1.79,15.14-2.75,1.13,4.11,2.06,7.81,3.17,11.45,1.15,3.75,1.66,3.97,5.84,3.35,3.01-.45,6.03-.89,9.58-1.41,1.21,4.91,2.36,9.61,3.68,14.99-5.24.98-9.97,1.87-15.12,2.84-1.69-4.81-3.26-9.29-5-14.26Zm28.18-49.12c11-11.63,15.38-24.06,17.18-36.44,0,0-9.66-16.74-30.33-15.51-20.66,1.23-16.35,16.29-9.91,19.99,6.44,3.71,8.64,4.58,15.36,5.73,6.72,1.15,11.99,1.99,13.02,15.63,0,0-2.77-1.68-11.92-3.69-9.15-2.01-17.81-3.6-22.58-15.5-2.24-5.58-7.43-19.35-.37-28.66,4.19-5.52,13.79-9.75,24.71-6.41,10.92,3.35,19.61,11.94,24.09,26.35,0,0,4.48,11.88,1.16,25.01-3.31,13.13-6.68,24.48-22.27,30.43-19.2,7.33-45.02-5.85-45.02-5.85,0,0,32.45,4.16,46.88-11.09Zm-48.83,2.02h0s0,0,0,0h0Zm-24.38,90.28c-2.08-11.95,8.45-25.94,10.04-29.55,0,0-.01,0-.01,0-1.1-1.17-3.12-3.69-4.2-5.35-15.51-23.94,16.95-83.38,16.95-83.38-15.88,63.07-5.72,72.34,6.68,79.75.66.36,9.75,5.56,12.22,7.97,6.39,6.25,7.84,12.23,6.47,20.22-1.98,11.52-10.97,25.91-31.45,25.91-2.87,0-14.61-3.62-16.7-15.57Z"/>
      <path class="cls-1" d="m70.48,200.05c2.16-.19,4.25-.66,6.29-1.33,2.73-.89,5.37-1.97,7.8-3.46.82-.5,1.58-1.07,2.17-1.81.29-.37.52-.76.58-1.22.11-.73-.15-1.39-.53-2.02-.43-.73-1-1.36-1.62-1.95-1.61-1.53-5.97-4.14-8.04-5-4.29-1.8-8.17-3.86-12.81-6.01-.15-.07-4.19,6.34-5.03,8.11-2.28,4.83-1.41,7.32-.92,8.82.78,2.37,2.33,4.11,4.81,5.08,1.66.65,3.4.85,5.45.89.42-.02,1.13-.03,1.83-.1Z"/>
    </g>
  </g>
</svg> -->
<svg xmlns="http://www.w3.org/2000/svg" fill="none" viewBox="0 0 24 24" stroke-width="1.5" stroke="currentColor" class="w-6 h-6">
  <path stroke-linecap="round" stroke-linejoin="round" d="M9.75 3.104v5.714a2.25 2.25 0 01-.659 1.591L5 14.5M9.75 3.104c-.251.023-.501.05-.75.082m.75-.082a24.301 24.301 0 014.5 0m0 0v5.714c0 .597.237 1.17.659 1.591L19.8 15.3M14.25 3.104c.251.023.501.05.75.082M19.8 15.3l-1.57.393A9.065 9.065 0 0112 15a9.065 9.065 0 00-6.23-.693L5 14.5m14.8.8l1.402 1.402c1.232 1.232.65 3.318-1.067 3.611A48.309 48.309 0 0112 21c-2.773 0-5.491-.235-8.135-.687-1.718-.293-2.3-2.379-1.067-3.61L5 14.5" />
</svg>


