<?xml version="1.0" encoding="utf-8"?>
<!-- Generator: Adobe Illustrator 26.0.3, SVG Export Plug-In . SVG Version: 6.00 Build 0)  -->
<svg version="1.1" id="Layer_1" xmlns="http://www.w3.org/2000/svg" xmlns:xlink="http://www.w3.org/1999/xlink" x="0px" y="0px"
	 viewBox="0 0 1000 1000" style="enable-background:new 0 0 1000 1000;" xml:space="preserve">
<style type="text/css">
	.st0{fill:url(#SVGID_1_);}
	.st1{fill:url(#SVGID_00000013156339172577280260000011430546009633042822_);}
	.st2{fill:url(#SVGID_00000105425179254478511000000012213673090645788604_);}
	.st3{fill:url(#SVGID_00000091700155379313757040000000175229146833312390_);}
	.st4{fill:url(#SVGID_00000016039718691101936890000000530129106325770167_);}
	.st5{fill:url(#SVGID_00000048489554652154689890000018319042997966305978_);}
	.st6{fill:url(#SVGID_00000114795610954058402420000011052844211681150095_);}
</style>
<linearGradient id="SVGID_1_" gradientUnits="userSpaceOnUse" x1="323.874" y1="541.5772" x2="137.5267" y2="183.4066" gradientTransform="matrix(1 0 0 -1 0 1002)">
	<stop  offset="0" style="stop-color:#221F1F"/>
	<stop  offset="1" style="stop-color:#D73651"/>
</linearGradient>
<path class="st0" d="M97.2,772.2c33-121.2,104.1-228.6,202.7-306.4C213.7,583.4,174,728.6,188.4,873.6
	C153.5,844.1,122.8,810,97.2,772.2z"/>
<linearGradient id="SVGID_00000057131023995701685300000008788172816461111976_" gradientUnits="userSpaceOnUse" x1="562.9445" y1="569.5604" x2="470.2268" y2="877.775" gradientTransform="matrix(1 0 0 -1 0 1002)">
	<stop  offset="0" style="stop-color:#221F1F"/>
	<stop  offset="1" style="stop-color:#D73651"/>
</linearGradient>
<path style="fill:url(#SVGID_00000057131023995701685300000008788172816461111976_);" d="M594.8,301c39.9-0.2,78.6,13.8,109.1,39.5
	c7.7-26.8,13.1-54.3,16.2-82C706.4,150,639.9,58.3,608.9,20.7c-123.9-27-257.1-2-364.1,67.3c38.5,6.8,87.8,27,138,57.4
	c73.4,44.5,134.6,102.6,169.6,160.7C566.3,302.8,580.5,301.1,594.8,301z"/>
<linearGradient id="SVGID_00000100374474523732649680000013648781193477808315_" gradientUnits="userSpaceOnUse" x1="498.9508" y1="478.3601" x2="805.713" y2="743.7455" gradientTransform="matrix(1 0 0 -1 0 1002)">
	<stop  offset="0" style="stop-color:#221F1F"/>
	<stop  offset="1" style="stop-color:#D73651"/>
</linearGradient>
<path style="fill:url(#SVGID_00000100374474523732649680000013648781193477808315_);" d="M981.1,342.4
	C922,537.8,704.6,692,498.4,567.8c47-11.2,100.7-39.1,136.2-75.6l0,0c113.1-94.6,121.9-374.9,62.1-457.9
	C832.3,90,936.4,202.8,981.1,342.4z"/>
<linearGradient id="SVGID_00000036226581900137959350000004040469650259549629_" gradientUnits="userSpaceOnUse" x1="529.7379" y1="507.4788" x2="583.9498" y2="97.9672" gradientTransform="matrix(1 0 0 -1 0 1002)">
	<stop  offset="0" style="stop-color:#221F1F"/>
	<stop  offset="1" style="stop-color:#D73651"/>
</linearGradient>
<path style="fill:url(#SVGID_00000036226581900137959350000004040469650259549629_);" d="M812.1,886.1
	c-111.2,86.4-253.9,121.3-392.5,96.1c-103.2-119.3-113.8-321.3-17.2-452.3c0,0,0,0.3,0,0.4c4.9-7.7,10.2-15,16-22
	c1.9-2.3,3.8-4.5,5.7-6.8c2.6,3.4,5.6,6.6,8.5,10.1C399.9,705.3,678.5,897.5,812.1,886.1z"/>
<linearGradient id="SVGID_00000013873370184355123850000010851504076848884106_" gradientUnits="userSpaceOnUse" x1="597.2819" y1="504.2116" x2="491.6953" y2="699.6788" gradientTransform="matrix(1 0 0 -1 0 1002)">
	<stop  offset="0" style="stop-color:#221F1F"/>
	<stop  offset="1" style="stop-color:#D73651"/>
</linearGradient>
<path style="fill:url(#SVGID_00000013873370184355123850000010851504076848884106_);" d="M431.3,494.2
	c18.7,21.9,40.4,41.1,64.4,56.8c40.3-10.3,83.8-32.7,112.9-58v-0.2l3.2-2.7c47.8-39,66.5-79.1,80.5-120.1
	C591.3,374.4,503.6,416.1,431.3,494.2z"/>
<linearGradient id="SVGID_00000028312046616221455650000001640748276587387270_" gradientUnits="userSpaceOnUse" x1="474.497" y1="537.9301" x2="898.2287" y2="329.6277" gradientTransform="matrix(1 0 0 -1 0 1002)">
	<stop  offset="0" style="stop-color:#221F1F"/>
	<stop  offset="1" style="stop-color:#D73651"/>
</linearGradient>
<path style="fill:url(#SVGID_00000028312046616221455650000001640748276587387270_);" d="M443,540.7c-0.8,74.1,43.9,154,119.3,209.8
	c87.3,64.5,204.2,89.7,306.1,66.1c58.2-65,97.8-144.5,114.5-230.1l0,0c7.6-38.9,10.4-78.6,8.3-118.2
	c-65,82.2-186.8,146.4-304.4,157.3C589.1,634.6,498.4,592,443,540.7z"/>
<linearGradient id="SVGID_00000070105787302816018340000008763670387833664424_" gradientUnits="userSpaceOnUse" x1="563.7301" y1="530.5609" x2="134.2563" y2="657.5622" gradientTransform="matrix(1 0 0 -1 0 1002)">
	<stop  offset="0" style="stop-color:#221F1F"/>
	<stop  offset="1" style="stop-color:#D73651"/>
</linearGradient>
<path style="fill:url(#SVGID_00000070105787302816018340000008763670387833664424_);" d="M463.8,347.8c29.5-13,60.4-22.6,92-28.7
	c-3.2,0.5-6.4,1.2-9.7,1.9c-11.2-20.9-24.7-40.5-40.3-58.5c-22.4-26.5-47.4-50.6-74.6-72.1c-111.2-54-238.9-39.8-290.8-30.7
	C42.9,267.3-2.7,412.1,15.5,556.2C37.9,523,108.2,436,252.1,395c-6.2-1.9-12.4-3.4-18.8-4.7C112,366.7,110.9,273.7,110.9,273.7
	s60.8,46.9,216.8,9.4s193.6,21.2,193.6,21.2C484.7,304.6,465,345.3,463.8,347.8z M347.5,212.4c-12.3,2.1-24.5,4.8-36.5,8.2
	c-31.3-12.4-60-30.4-84.8-53.1C226.2,167.5,286.8,197.7,347.5,212.4z M274.6,228.4c-21.7,2.5-43.5,3.4-65.3,2.5
	c-20.4-8.1-39.8-18.5-57.9-31C151.4,199.9,213.4,221.2,274.6,228.4z M328.6,254.7c-80.1,23.6-146.6,21.3-217.4-12.2
	c0,0,116.7,20.5,185.8,0c72.4-21.4,125.4-15,159.3,6.5c0.1,0-47.5-17.9-127.6,5.7H328.6z"/>
</svg>
