<?xml version="1.0" encoding="UTF-8"?>
<svg id="Layer_2" data-name="Layer 2" xmlns="http://www.w3.org/2000/svg" viewBox="0 0 375.02 375.02">
  <defs>
    <style>
      .cls-1 {
        fill: #046684;
      }
    </style>
  </defs>
  <g id="Layer_1-2" data-name="Layer 1">
    <g>
      <path class="cls-1" d="m128.7,290.48c-4.5.67-5.04.43-6.28-3.6-1.2-3.92-2.2-7.89-3.41-12.31-5.64,1.02-10.88,1.97-16.27,2.95,1.15,5.93,2.16,11.12,3.27,16.82,2.76-.2,5.26-.32,7.75-.57,2.47-.25,4.93-.62,7.56-.96,1.87,5.33,3.56,10.16,5.38,15.32,5.53-1.04,10.62-1.99,16.25-3.05-1.42-5.79-2.66-10.84-3.96-16.11-3.81.56-7.05,1.03-10.29,1.51Z"/>
      <polygon class="cls-1" points="95.13 141.18 95.13 141.18 95.13 141.18 95.13 141.18"/>
      <path class="cls-1" d="m148.83,158.25c17.83-6.81,21.68-19.78,25.47-34.8,3.79-15.02-1.33-28.6-1.33-28.6-5.12-16.48-15.06-26.3-27.55-30.13-12.49-3.83-23.47,1.01-28.25,7.32-8.07,10.65-2.14,26.4.42,32.78,5.45,13.6,15.36,15.42,25.82,17.72,10.46,2.3,13.63,4.22,13.63,4.22-1.17-15.59-7.2-16.55-14.88-17.87-7.69-1.32-10.21-2.32-17.57-6.56-7.36-4.24-12.29-21.45,11.33-22.86,23.63-1.41,34.68,17.73,34.68,17.73-2.06,14.16-7.07,28.38-19.65,41.67-16.49,17.44-53.6,12.68-53.6,12.68,0,0,29.52,15.07,51.48,6.69Z"/>
      <path class="cls-1" d="m122.31,232.59c1.57-9.14-.09-15.97-7.39-23.12-2.82-2.76-13.21-8.71-13.97-9.12-14.19-8.47-25.8-19.08-7.64-91.19,0,0-37.13,67.97-19.39,95.34,1.23,1.9,3.55,4.78,4.8,6.12,0,0,.01,0,.02,0-1.82,4.13-13.86,20.12-11.48,33.79,2.38,13.67,15.81,17.81,19.09,17.81,23.41,0,33.7-16.46,35.96-29.63Zm-42.55,2.05c-.57-1.72-1.56-4.57,1.05-10.08.96-2.02,5.58-9.35,5.75-9.28,5.31,2.46,9.74,4.82,14.64,6.88,2.36.99,7.35,3.97,9.19,5.72.71.68,1.36,1.4,1.86,2.23.43.72.72,1.47.6,2.31-.08.53-.34.98-.67,1.4-.67.85-1.54,1.5-2.48,2.07-2.77,1.7-5.79,2.93-8.92,3.95-2.33.76-4.73,1.3-7.2,1.52-.81.07-1.62.09-2.1.11-2.35-.05-4.34-.28-6.24-1.02-2.83-1.11-4.61-3.1-5.5-5.81Z"/>
      <path class="cls-1" d="m0,0v375.02h375.02V0H0Zm325.65,281.75l-40.11,39.83c6.55-8.93,12.12-18.57,16.94-28.6,6.3-13.1,10.45-36.56,7.82-58.2-.81-6.69-2.49-13.29-4.38-19.79-4.39-15.07-10.6-27.92-18.22-41.83-2.63,4-7.81,9.71-14.68,13.63,3.99,7.5,7.7,15.12,11.03,22.92,7.4,17.35,10.94,35.19,9.25,53.8-1.92,21.16-9.03,40.6-23.02,57.81-16.86,20.74-38.08,35.34-66.72,39.81-1.24.19-2.48.36-3.71.51-12.76,1.02-25.63.24-38.2-2.35-2.67-.69-5.33-1.49-7.97-2.42-5.63-1.98-10.87-4.46-15.82-7.31-5.41-1.67-11.96-4-19.12-7.16-8.83-5.38-17.18-11.84-24.83-19.43l-41.5-41.22C-.14,229.58-.14,144.99,52.4,92.82l41.5-41.22c19.23-19.1,42.84-31.17,67.62-36.29-.53,4.5-.65,9.74.04,15.7,2.71,23.37,24.02,52.45,31.55,67.98,8.9,18.36,5.49,30.43-5.45,54.22-6.9,13.08-14.22,25.98-21.71,38.78-8,13.67-16.66,28.18-20.66,46.38-3.51,16.01-3.13,28.01.73,42.32,2.91,10.79,10.81,18.82,19.45,22.31,12.5,5.06,26.97,3.68,41.14-17.7,12.4-18.7,13.96-39.4,12.51-53.07-2.53-23.85-1.72-37.32-1.72-37.32,0,0-8.64,20.37-23.19,37.43,0,0,7.7,9.13,7.13,18.69-1.2,20.21-9.38,30.22-19.17,35.92-6.85,3.99-15.12,3.02-21.96-2.74-6.35-5.35-6.49-24.26,5.59-46.44,10.28-18.87,21.81-37.03,32.21-55.79,4.23-7.63,7.82-15.66,10.66-23.88,9.21-26.62,3.64-41.67-2.4-53.15-7.73-14.7-23.36-39.98-33.61-58.89-3.99-7.36-6.76-17.21-6.69-31.58,4.86-.84,9.76-1.41,14.67-1.71,1.68,13.1,5.14,25.88,10.69,38.21.14.31.25.62.35.91,1,2.29,2.99,6.51,6.22,11.91.03.06.05.1.09.16,7.24,12.03,14.32,24.15,21.87,36.01,11.1,17.42,22.77,34.53,33.9,51.94,3.25-1.85,9.9-5.87,15.61-10.77-10.98-16.84-21.95-33.69-32.93-50.52-12.8-19.63-25.58-39.27-35.03-60.6-2.54-5.73-4.8-11.52-6.63-17.41,4.75.2,9.48.65,14.19,1.35,6.07,11.35,13.27,23.16,20.95,33.35,13.01,17.26,25.14,29.82,38.52,50.49,4.23,6.53,6.19,12.65,8.13,19.96,2,8.27,3.67,21.65-4.09,28.14,0,0-3.67,3.63-15.47,11.16-3.47,2.41-5.92,4.07-5.92,4.07-19.01,10.42-12.61,35.68-10.39,58.33,2.22,22.65,2.46,60.87-33.01,87.21-74.23,55.13-132.1-27.54-132.1-27.54,23.38,71.43,108.77,75.17,142.12,53.35,32.08-20.99,41.04-63.67,33.76-99.74-3.82-18.94-1.66-29.7,1.47-35.55,3.47-6.47,20.45-16.62,29.91-27.14,12.81-14.25,18.23-23.66,8.74-54.6-2.67-8.7-10.23-22.38-16.37-30.64-18.38-24.73-33.35-45.01-45.96-66.21,20.08,6.23,38.99,17.21,54.9,33.01l41.5,41.22c52.53,52.17,52.53,136.76,0,188.93Z"/>
      <path class="cls-1" d="m137.54,190.95c-4.06.59-7.5,1.1-10.95,1.61-4.78.71-5.37.46-6.68-3.83-1.28-4.17-2.34-8.39-3.63-13.1-6,1.09-11.57,2.1-17.31,3.14,1.23,6.31,2.3,11.83,3.48,17.9,2.94-.21,5.6-.34,8.25-.61,2.63-.26,5.25-.66,8.05-1.02,1.99,5.67,3.79,10.81,5.72,16.3,5.89-1.1,11.3-2.12,17.29-3.25-1.51-6.16-2.83-11.53-4.21-17.15Z"/>
    </g>
  </g>
</svg>