<?xml version="1.0" encoding="UTF-8"?>
<svg id="Layer_2" data-name="Layer 2" xmlns="http://www.w3.org/2000/svg" viewBox="0 0 904.76 557.07">
  <defs>
    <style>
      .cls-1 {
        fill: #046684;
      }

      .cls-2 {
        fill: #b5a072;
      }
    </style>
  </defs>
  <g id="Layer_1-2" data-name="Layer 1">
    <g>
      <path class="cls-2" d="m38.07,450.47l-8.87,31.75H0l38.07-123.69h36.96l38.62,123.69h-30.31l-9.61-31.75h-35.67Zm31.6-20.92l-7.76-26.24c-2.22-7.34-4.43-16.52-6.28-23.86h-.37c-1.85,7.34-3.7,16.7-5.73,23.86l-7.39,26.24h27.53Z"/>
      <path class="cls-2" d="m133.98,358.52h28.27v100.2h49.53v23.49h-77.8v-123.69Z"/>
      <path class="cls-2" d="m232.1,360.17c9.06-1.47,22.55-2.57,37.51-2.57,18.48,0,31.42,2.75,40.29,9.73,7.39,5.87,11.46,14.5,11.46,25.88,0,15.78-11.27,26.61-21.99,30.47v.55c8.69,3.49,13.49,11.75,16.63,23.12,3.88,13.95,7.76,30.1,10.16,34.87h-28.83c-2.03-3.67-4.99-13.58-8.69-28.81-3.33-15.42-8.69-19.64-20.14-19.82h-8.5v48.63h-27.91v-122.04Zm27.91,53.22h11.09c14.05,0,22.36-6.97,22.36-17.8,0-11.38-7.76-17.07-20.7-17.25-6.84,0-10.72.55-12.75.92v34.14Z"/>
      <path class="cls-2" d="m419.49,429.91h-45.83v29.36h51.19v22.94h-79.46v-123.69h76.88v22.94h-48.6v25.69h45.83v22.76Z"/>
      <path class="cls-2" d="m476.59,482.22v-50.65l-39.36-73.04h32.15l12.75,29.73c3.88,8.99,6.47,15.6,9.61,23.67h.37c2.77-7.71,5.73-14.87,9.43-23.67l12.57-29.73h31.6l-41.03,72.12v51.57h-28.09Z"/>
      <path class="cls-2" d="m574.9,450.47l-8.87,31.75h-29.2l38.07-123.69h36.96l38.62,123.69h-30.31l-9.61-31.75h-35.67Zm31.6-20.92l-7.76-26.24c-2.22-7.34-4.43-16.52-6.28-23.86h-.37c-1.85,7.34-3.7,16.7-5.73,23.86l-7.39,26.24h27.53Z"/>
      <path class="cls-2" d="m670.81,360.17c10.35-1.65,23.84-2.57,38.07-2.57,23.65,0,38.99,4.22,51,13.21,12.94,9.54,21.07,24.78,21.07,46.61,0,23.67-8.69,40.01-20.7,50.1-13.12,10.83-33.08,15.97-57.47,15.97-14.6,0-24.95-.92-31.97-1.83v-121.49Zm28.27,100.94c2.4.55,6.28.55,9.79.55,25.5.18,42.13-13.76,42.13-43.31.19-25.69-14.97-39.27-39.18-39.27-6.28,0-10.35.55-12.75,1.1v80.93Z"/>
      <path class="cls-2" d="m829.18,450.47l-8.87,31.75h-29.2l38.07-123.69h36.96l38.62,123.69h-30.31l-9.61-31.75h-35.67Zm31.6-20.92l-7.76-26.24c-2.22-7.34-4.43-16.52-6.28-23.86h-.37c-1.85,7.34-3.7,16.7-5.73,23.86l-7.39,26.24h27.53Z"/>
    </g>
    <g>
      <path class="cls-1" d="m571.06,70.15l-36.3-36.05c-13.91-13.82-30.45-23.42-48.01-28.87,11.03,18.54,24.12,36.28,40.2,57.91,5.37,7.23,11.99,19.19,14.32,26.8,8.3,27.06,3.56,35.29-7.64,47.75-8.27,9.2-23.12,18.07-26.15,23.73-2.74,5.12-4.63,14.53-1.29,31.09,6.36,31.55-1.47,68.87-29.53,87.23-29.17,19.08-103.84,15.81-124.29-46.66,0,0,50.61,72.29,115.53,24.08,31.02-23.04,30.81-56.46,28.87-76.27-1.94-19.81-7.54-41.9,9.09-51.01,0,0,2.14-1.45,5.18-3.56,10.32-6.59,13.53-9.76,13.53-9.76,6.78-5.68,5.33-17.38,3.58-24.61-1.69-6.39-3.41-11.75-7.11-17.45-11.71-18.08-22.31-29.06-33.69-44.15-6.72-8.92-13.01-19.24-18.32-29.17-4.12-.61-8.26-1-12.41-1.18,1.61,5.15,3.58,10.21,5.8,15.22,8.26,18.65,19.44,35.83,30.63,53,9.6,14.73,19.2,29.46,28.8,44.19-4.99,4.28-10.81,7.8-13.65,9.42-9.73-15.22-19.94-30.19-29.65-45.43-6.61-10.37-12.8-20.97-19.13-31.49-.03-.05-.05-.09-.08-.14-2.83-4.72-4.57-8.42-5.44-10.42-.08-.26-.18-.53-.3-.8-4.85-10.78-7.88-21.96-9.35-33.42-4.3.26-8.58.77-12.83,1.5-.06,12.57,2.36,21.18,5.85,27.62,8.97,16.54,22.64,38.65,29.4,51.5,5.28,10.04,10.15,23.2,2.1,46.49-2.48,7.18-5.62,14.2-9.32,20.88-9.09,16.41-19.17,32.29-28.17,48.79-10.57,19.4-10.45,35.94-4.89,40.61,5.98,5.03,13.21,5.88,19.2,2.4,8.57-4.99,15.72-13.74,16.77-31.41.5-8.36-6.24-16.34-6.24-16.34,12.72-14.92,20.28-32.74,20.28-32.74,0,0-.71,11.79,1.51,32.64,1.27,11.95-.1,30.06-10.94,46.41-12.39,18.69-25.05,19.9-35.98,15.48-7.56-3.06-14.46-10.08-17.01-19.51-3.38-12.51-3.71-23.01-.64-37.01,3.49-15.92,11.07-28.61,18.06-40.56,6.55-11.19,12.95-22.47,18.98-33.91,9.57-20.8,12.55-31.36,4.76-47.42-6.59-13.59-25.22-39.01-27.59-59.45-.6-5.22-.5-9.79-.04-13.73-21.67,4.47-42.32,15.03-59.13,31.74l-36.3,36.05c-45.94,45.63-45.94,119.6,0,165.22l36.3,36.05c6.69,6.64,13.99,12.29,21.72,16.99,6.26,2.76,11.99,4.8,16.72,6.26,4.33,2.49,8.91,4.66,13.83,6.39,2.31.81,4.64,1.51,6.97,2.12,11,2.26,22.25,2.94,33.41,2.05,1.08-.13,2.16-.28,3.25-.45,25.05-3.91,43.6-16.68,58.35-34.82,12.23-15.04,18.45-32.05,20.13-50.55,1.48-16.28-1.62-31.87-8.09-47.05-2.91-6.82-6.16-13.49-9.64-20.04,6.01-3.43,10.54-8.42,12.84-11.92,6.66,12.16,12.09,23.4,15.93,36.58,1.65,5.68,3.12,11.46,3.83,17.31,2.3,18.93-1.33,39.45-6.84,50.9-4.22,8.77-9.09,17.21-14.82,25.01l35.08-34.83c45.94-45.63,45.94-119.6,0-165.22Zm-159.78,185.63c-4.92.92-9.37,1.76-14.21,2.67-1.59-4.52-3.07-8.74-4.7-13.4-2.3.3-4.45.62-6.61.84-2.17.22-4.36.33-6.78.5-.97-4.99-1.85-9.52-2.86-14.71,4.71-.85,9.3-1.69,14.23-2.58,1.06,3.87,1.93,7.34,2.98,10.76,1.08,3.53,1.56,3.73,5.49,3.15,2.83-.42,5.67-.83,9-1.32,1.13,4.62,2.22,9.03,3.46,14.09Zm-21.17-96.23c-2.45.31-4.74.66-7.04.89-2.31.23-4.64.35-7.21.53-1.03-5.3-1.97-10.13-3.04-15.65,5.01-.91,9.89-1.79,15.14-2.75,1.13,4.11,2.06,7.81,3.17,11.45,1.15,3.75,1.66,3.97,5.84,3.35,3.01-.45,6.03-.89,9.58-1.41,1.21,4.91,2.36,9.61,3.68,14.99-5.24.98-9.97,1.87-15.12,2.84-1.69-4.81-3.26-9.29-5-14.26Zm28.18-49.12c11-11.63,15.38-24.06,17.18-36.44,0,0-9.66-16.74-30.33-15.51-20.66,1.23-16.35,16.29-9.91,19.99,6.44,3.71,8.64,4.58,15.36,5.73,6.72,1.15,11.99,1.99,13.02,15.63,0,0-2.77-1.68-11.92-3.69-9.15-2.01-17.81-3.6-22.58-15.5-2.24-5.58-7.43-19.35-.37-28.66,4.19-5.52,13.79-9.75,24.71-6.41,10.92,3.35,19.61,11.94,24.09,26.35,0,0,4.48,11.88,1.16,25.01-3.31,13.13-6.68,24.48-22.27,30.43-19.2,7.33-45.02-5.85-45.02-5.85,0,0,32.45,4.16,46.88-11.09Zm-48.83,2.02h0s0,0,0,0h0Zm-24.38,90.28c-2.08-11.95,8.45-25.94,10.04-29.55,0,0-.01,0-.01,0-1.1-1.17-3.12-3.69-4.2-5.35-15.51-23.94,16.95-83.38,16.95-83.38-15.88,63.07-5.72,72.34,6.68,79.75.66.36,9.75,5.56,12.22,7.97,6.39,6.25,7.84,12.23,6.47,20.22-1.98,11.52-10.97,25.91-31.45,25.91-2.87,0-14.61-3.62-16.7-15.57Z"/>
      <path class="cls-1" d="m368.12,200.05c2.16-.19,4.25-.66,6.29-1.33,2.73-.89,5.37-1.97,7.8-3.46.82-.5,1.58-1.07,2.17-1.81.29-.37.52-.76.58-1.22.11-.73-.15-1.39-.53-2.02-.43-.73-1-1.36-1.62-1.95-1.61-1.53-5.97-4.14-8.04-5-4.29-1.8-8.17-3.86-12.81-6.01-.15-.07-4.19,6.34-5.03,8.11-2.28,4.83-1.41,7.32-.92,8.82.78,2.37,2.33,4.11,4.81,5.08,1.66.65,3.4.85,5.45.89.42-.02,1.13-.03,1.83-.1Z"/>
    </g>
    <g>
      <path class="cls-1" d="m98.36,543.68c-.19-4.07-.42-8.99-.38-13.3h-.14c-1.04,3.89-2.36,8.15-3.77,12.13l-4.62,13.67h-4.48l-4.24-13.48c-1.23-4.03-2.36-8.33-3.21-12.31h-.09c-.14,4.17-.33,9.18-.57,13.48l-.71,12.69h-5.42l2.12-31.56h7.64l4.15,12.69c1.13,3.7,2.12,7.44,2.92,10.96h.14c.85-3.42,1.93-7.3,3.16-11l4.38-12.64h7.54l1.84,31.56h-5.66l-.61-12.88Z"/>
      <path class="cls-1" d="m157.52,542.56h-11.97v9.27h13.39v4.73h-19.19v-31.56h18.48v4.73h-12.68v8.15h11.97v4.68Z"/>
      <path class="cls-1" d="m193.25,525.42c2.55-.42,5.8-.66,9.24-.66,5.94,0,10.04,1.22,12.97,3.65,3.06,2.48,4.95,6.23,4.95,11.61s-1.93,9.83-4.95,12.55c-3.16,2.86-8.2,4.31-14.38,4.31-3.39,0-5.94-.19-7.83-.42v-31.04Zm5.8,26.73c.8.14,2.03.14,3.21.14,7.54.05,12.02-4.07,12.02-12.08.05-6.98-4.01-10.96-11.27-10.96-1.84,0-3.16.14-3.96.33v22.57Z"/>
      <path class="cls-1" d="m260.47,525v31.56h-5.8v-31.56h5.8Z"/>
      <path class="cls-1" d="m319.12,555.62c-1.37.7-4.38,1.45-8.2,1.45-10.09,0-16.22-6.32-16.22-15.92,0-10.39,7.26-16.67,16.97-16.67,3.82,0,6.55.8,7.73,1.4l-1.27,4.59c-1.51-.66-3.58-1.22-6.22-1.22-6.46,0-11.13,4.03-11.13,11.61,0,6.93,4.1,11.38,11.08,11.38,2.36,0,4.81-.47,6.32-1.17l.94,4.54Z"/>
      <path class="cls-1" d="m359.99,547.62l-2.74,8.94h-5.99l10.18-31.56h7.4l10.32,31.56h-6.22l-2.88-8.94h-10.09Zm9.1-4.35l-2.5-7.77c-.61-1.92-1.13-4.07-1.6-5.9h-.09c-.47,1.83-.94,4.03-1.51,5.9l-2.45,7.77h8.16Z"/>
      <path class="cls-1" d="m412.83,525h5.8v26.73h13.06v4.82h-18.86v-31.56Z"/>
      <path class="cls-1" d="m526.11,555.62c-1.37.7-4.38,1.45-8.2,1.45-10.09,0-16.22-6.32-16.22-15.92,0-10.39,7.26-16.67,16.97-16.67,3.82,0,6.55.8,7.73,1.4l-1.27,4.59c-1.51-.66-3.58-1.22-6.22-1.22-6.46,0-11.13,4.03-11.13,11.61,0,6.93,4.1,11.38,11.08,11.38,2.36,0,4.81-.47,6.32-1.17l.94,4.54Z"/>
      <path class="cls-1" d="m578.06,542.56h-11.97v9.27h13.39v4.73h-19.19v-31.56h18.48v4.73h-12.68v8.15h11.97v4.68Z"/>
      <path class="cls-1" d="m613.79,556.56v-31.56h6.6l8.2,13.53c2.12,3.51,3.96,7.16,5.42,10.58h.09c-.38-4.21-.52-8.29-.52-13.11v-11h5.38v31.56h-5.99l-8.3-13.91c-2.03-3.42-4.15-7.3-5.7-10.86l-.14.05c.24,4.07.28,8.24.28,13.44v11.28h-5.33Z"/>
      <path class="cls-1" d="m680.96,529.83h-9.05v-4.82h24v4.82h-9.15v26.73h-5.8v-26.73Z"/>
      <path class="cls-1" d="m728.86,525.42c2.17-.37,5.42-.66,8.77-.66,4.57,0,7.69.75,9.81,2.53,1.74,1.45,2.73,3.65,2.73,6.32,0,4.07-2.78,6.84-5.75,7.91v.14c2.26.84,3.63,3.04,4.43,6.09.99,3.93,1.84,7.58,2.5,8.8h-5.99c-.47-.94-1.23-3.51-2.12-7.44-.9-4.12-2.4-5.43-5.7-5.52h-2.92v12.97h-5.75v-31.14Zm5.75,13.95h3.44c3.91,0,6.36-2.06,6.36-5.2,0-3.46-2.45-5.06-6.22-5.06-1.84,0-3.02.14-3.58.28v9.97Z"/>
      <path class="cls-1" d="m802.68,542.56h-11.97v9.27h13.39v4.73h-19.19v-31.56h18.48v4.73h-12.68v8.15h11.97v4.68Z"/>
    </g>
  </g>
</svg>